<svg width="26" height="27" viewBox="0 0 26 27" fill="none" xmlns="http://www.w3.org/2000/svg">
<path d="M25 16.1733C21.1873 17.7149 17.1126 18.505 13 18.5C8.756 18.5 4.70667 17.6733 1 16.1733M18.3333 6.49996V3.83329C18.3333 3.12605 18.0524 2.44777 17.5523 1.94767C17.0522 1.44758 16.3739 1.16663 15.6667 1.16663H10.3333C9.62609 1.16663 8.94781 1.44758 8.44772 1.94767C7.94762 2.44777 7.66667 3.12605 7.66667 3.83329V6.49996M13 14.5H13.0133M3.66667 25.1666H22.3333C23.0406 25.1666 23.7189 24.8857 24.219 24.3856C24.719 23.8855 25 23.2072 25 22.5V9.16663C25 8.45938 24.719 7.7811 24.219 7.28101C23.7189 6.78091 23.0406 6.49996 22.3333 6.49996H3.66667C2.95942 6.49996 2.28115 6.78091 1.78105 7.28101C1.28095 7.7811 1 8.45938 1 9.16663V22.5C1 23.2072 1.28095 23.8855 1.78105 24.3856C2.28115 24.8857 2.95942 25.1666 3.66667 25.1666Z" stroke="black" stroke-width="2" stroke-linecap="round" stroke-linejoin="round"/>
</svg>
