<svg width="32" height="33" viewBox="0 0 32 33" fill="none" xmlns="http://www.w3.org/2000/svg">
<path d="M10.6667 9.83333V4.5M21.3333 9.83333V4.5M9.33333 15.1667H22.6667M6.66667 28.5H25.3333C26.0406 28.5 26.7189 28.219 27.219 27.719C27.719 27.2189 28 26.5406 28 25.8333V9.83333C28 9.12609 27.719 8.44781 27.219 7.94772C26.7189 7.44762 26.0406 7.16667 25.3333 7.16667H6.66667C5.95942 7.16667 5.28115 7.44762 4.78105 7.94772C4.28095 8.44781 4 9.12609 4 9.83333V25.8333C4 26.5406 4.28095 27.2189 4.78105 27.719C5.28115 28.219 5.95942 28.5 6.66667 28.5Z" stroke="black" stroke-width="2" stroke-linecap="round" stroke-linejoin="round"/>
</svg>
