<svg width="32" height="32" viewBox="0 0 32 32" fill="none" xmlns="http://www.w3.org/2000/svg">
<path d="M14.7319 3.90269C15.1319 2.67469 16.8692 2.67469 17.2679 3.90269L19.2932 10.1347C19.3804 10.402 19.5498 10.6349 19.7773 10.8002C20.0048 10.9654 20.2787 11.0545 20.5599 11.0547H27.1132C28.4052 11.0547 28.9412 12.708 27.8972 13.468L22.5959 17.3187C22.3682 17.4842 22.1987 17.7176 22.1117 17.9854C22.0248 18.2532 22.0248 18.5416 22.1119 18.8094L24.1359 25.0414C24.5359 26.2707 23.1292 27.292 22.0852 26.532L16.7839 22.6814C16.556 22.5157 16.2816 22.4265 15.9999 22.4265C15.7182 22.4265 15.4437 22.5157 15.2159 22.6814L9.91455 26.532C8.87055 27.292 7.46388 26.2694 7.86388 25.0414L9.88788 18.8094C9.97492 18.5416 9.97497 18.2532 9.88803 17.9854C9.80108 17.7176 9.63161 17.4842 9.40388 17.3187L4.10255 13.468C3.05722 12.708 3.59588 11.0547 4.88655 11.0547H11.4386C11.7199 11.0548 11.9942 10.9658 12.2219 10.8006C12.4497 10.6353 12.6193 10.4022 12.7065 10.1347L14.7319 3.90269Z" stroke="black" stroke-width="2" stroke-linecap="round" stroke-linejoin="round"/>
</svg>
