<svg width="32" height="32" viewBox="0 0 32 32" fill="none" xmlns="http://www.w3.org/2000/svg">
<path d="M22.6667 26.6667H29.3334V24C29.3334 23.1688 29.0743 22.3581 28.5923 21.6809C28.1102 21.0036 27.4292 20.4934 26.6437 20.221C25.8583 19.9487 25.0076 19.9279 24.2098 20.1614C23.4119 20.3949 22.7067 20.8712 22.1921 21.524M22.6667 26.6667H9.33341M22.6667 26.6667V24C22.6667 23.1254 22.4987 22.2894 22.1921 21.524M22.1921 21.524C21.6969 20.2867 20.8424 19.226 19.7387 18.4789C18.6351 17.7318 17.3329 17.3324 16.0001 17.3324C14.6673 17.3324 13.3651 17.7318 12.2614 18.4789C11.1577 19.226 10.3032 20.2867 9.80808 21.524M9.33341 26.6667H2.66675V24C2.66681 23.1688 2.92586 22.3581 3.4079 21.6809C3.88993 21.0036 4.571 20.4934 5.35642 20.221C6.14183 19.9487 6.99258 19.9279 7.7904 20.1614C8.58821 20.3949 9.29345 20.8712 9.80808 21.524M9.33341 26.6667V24C9.33341 23.1254 9.50141 22.2894 9.80808 21.524M20.0001 9.33337C20.0001 10.3942 19.5787 11.4117 18.8285 12.1618C18.0784 12.9119 17.0609 13.3334 16.0001 13.3334C14.9392 13.3334 13.9218 12.9119 13.1717 12.1618C12.4215 11.4117 12.0001 10.3942 12.0001 9.33337C12.0001 8.27251 12.4215 7.25509 13.1717 6.50495C13.9218 5.7548 14.9392 5.33337 16.0001 5.33337C17.0609 5.33337 18.0784 5.7548 18.8285 6.50495C19.5787 7.25509 20.0001 8.27251 20.0001 9.33337ZM28.0001 13.3334C28.0001 14.0406 27.7191 14.7189 27.219 15.219C26.7189 15.7191 26.0407 16 25.3334 16C24.6262 16 23.9479 15.7191 23.4478 15.219C22.9477 14.7189 22.6667 14.0406 22.6667 13.3334C22.6667 12.6261 22.9477 11.9479 23.4478 11.4478C23.9479 10.9477 24.6262 10.6667 25.3334 10.6667C26.0407 10.6667 26.7189 10.9477 27.219 11.4478C27.7191 11.9479 28.0001 12.6261 28.0001 13.3334ZM9.33341 13.3334C9.33341 14.0406 9.05246 14.7189 8.55237 15.219C8.05227 15.7191 7.37399 16 6.66675 16C5.9595 16 5.28123 15.7191 4.78113 15.219C4.28103 14.7189 4.00008 14.0406 4.00008 13.3334C4.00008 12.6261 4.28103 11.9479 4.78113 11.4478C5.28123 10.9477 5.9595 10.6667 6.66675 10.6667C7.37399 10.6667 8.05227 10.9477 8.55237 11.4478C9.05246 11.9479 9.33341 12.6261 9.33341 13.3334Z" stroke="black" stroke-width="2" stroke-linecap="round" stroke-linejoin="round"/>
</svg>
